<svg width="137" height="104" viewBox="0 0 137 104" fill="none" xmlns="http://www.w3.org/2000/svg">
<mask id="path-1-outside-1_164_2" maskUnits="userSpaceOnUse" x="-1" y="14" width="138" height="33" fill="black">
<rect fill="white" x="-1" y="14" width="138" height="33"/>
<path d="M23.4988 42.96C21.2321 44.7733 18.0054 45.68 13.8188 45.68C9.63208 45.68 6.43208 44.7733 4.21875 42.96C1.97875 41.1467 0.805417 38.7067 0.69875 35.64H9.61875C9.72542 36.8667 10.1254 37.72 10.8188 38.2C11.5121 38.68 12.5654 38.92 13.9788 38.92C16.4588 38.92 17.6988 38.2667 17.6988 36.96C17.6988 36.32 17.4054 35.8267 16.8188 35.48C16.2321 35.1333 15.1788 34.8533 13.6588 34.64L10.2188 34.16C7.41875 33.76 5.24542 32.8133 3.69875 31.32C2.15208 29.8 1.37875 27.76 1.37875 25.2C1.37875 22.6933 2.16542 20.5867 3.73875 18.88C5.57875 16.88 8.83208 15.88 13.4988 15.88C21.3388 15.88 25.5121 19.0133 26.0188 25.28H17.6588C17.5521 24.3467 17.2054 23.6667 16.6188 23.24C16.0321 22.7867 15.0988 22.56 13.8188 22.56C11.5254 22.56 10.3788 23.1733 10.3788 24.4C10.3788 25.44 11.2721 26.08 13.0588 26.32L16.4988 26.8C20.0721 27.3067 22.6854 28.2667 24.3388 29.68C25.9921 31.0933 26.8188 33.0667 26.8188 35.6C26.8188 38.6933 25.7121 41.1467 23.4988 42.96ZM27.1078 16.52H51.9078V24.28H44.0278V45H34.9878V24.28H27.1078V16.52ZM67.1525 45.68C62.6192 45.68 58.9792 44.32 56.2325 41.6C53.4592 38.9067 52.0725 35.2933 52.0725 30.76C52.0725 26.2533 53.4725 22.64 56.2725 19.92C59.0458 17.2267 62.6725 15.88 67.1525 15.88C71.6058 15.88 75.2458 17.2267 78.0725 19.92C80.8458 22.64 82.2325 26.2533 82.2325 30.76C82.2325 35.2933 80.8458 38.9067 78.0725 41.6C75.2725 44.32 71.6325 45.68 67.1525 45.68ZM62.9925 36.2C64.0058 37.4 65.3925 38 67.1525 38C68.9125 38 70.3125 37.4 71.3525 36.2C72.3658 35.0267 72.8725 33.2133 72.8725 30.76C72.8725 28.3867 72.3658 26.6 71.3525 25.4C70.3658 24.1733 68.9658 23.56 67.1525 23.56C65.3392 23.56 63.9258 24.1733 62.9125 25.4C61.9258 26.6 61.4325 28.3867 61.4325 30.76C61.4325 33.2133 61.9525 35.0267 62.9925 36.2ZM109.312 37.92L109.632 42.12C109.766 43.5333 109.992 44.4933 110.312 45H101.072C100.752 44.3867 100.566 43.4267 100.512 42.12L100.392 39.28C100.339 37.92 100.046 36.9867 99.5122 36.48C99.0055 35.9733 98.0855 35.72 96.7522 35.72H93.6322V45H84.5922V16.52H98.6322C105.939 16.52 109.592 19.3067 109.592 24.88C109.592 28.2933 108.166 30.56 105.312 31.68C106.592 32.16 107.539 32.8933 108.152 33.88C108.792 34.8667 109.179 36.2133 109.312 37.92ZM93.6322 29.16H97.2322C99.3122 29.16 100.352 28.2133 100.352 26.32C100.352 24.4267 99.3122 23.48 97.2322 23.48H93.6322V29.16ZM135.765 16.52V24.28H121.445V27.08H134.685V34.56H121.445V37.24H135.765V45H112.405V16.52H135.765Z"/>
</mask>
<path d="M23.4988 42.96L24.1235 43.7409L24.1325 43.7335L23.4988 42.96ZM4.21875 42.96L4.85251 42.1864L4.84795 42.1828L4.21875 42.96ZM0.69875 35.64V34.64H-0.336637L-0.300646 35.6748L0.69875 35.64ZM9.61875 35.64L10.615 35.5534L10.5356 34.64H9.61875V35.64ZM10.8188 38.2L10.2495 39.0222L10.8188 38.2ZM16.8188 35.48L17.3275 34.6191L16.8188 35.48ZM13.6588 34.64L13.7977 33.6497L13.7969 33.6496L13.6588 34.64ZM10.2188 34.16L10.0773 35.15L10.0806 35.1504L10.2188 34.16ZM3.69875 31.32L2.99779 32.0333L3.00416 32.0394L3.69875 31.32ZM3.73875 18.88L4.47399 19.5578L4.47468 19.5571L3.73875 18.88ZM26.0188 25.28V26.28H27.1029L27.0155 25.1994L26.0188 25.28ZM17.6588 25.28L16.6652 25.3935L16.7665 26.28H17.6588V25.28ZM16.6188 23.24L16.0073 24.0313L16.0188 24.0402L16.0306 24.0487L16.6188 23.24ZM13.0588 26.32L13.1969 25.3296L13.1919 25.3289L13.0588 26.32ZM16.4988 26.8L16.6391 25.8099L16.6369 25.8096L16.4988 26.8ZM24.3388 29.68L24.9885 28.9199L24.3388 29.68ZM22.8741 42.1791C20.8483 43.7997 17.876 44.68 13.8188 44.68V46.68C18.1348 46.68 21.6158 45.747 24.1234 43.7409L22.8741 42.1791ZM13.8188 44.68C9.75931 44.68 6.82055 43.7988 4.8525 42.1865L3.585 43.7335C6.04361 45.7478 9.50486 46.68 13.8188 46.68V44.68ZM4.84795 42.1828C2.84906 40.5646 1.79548 38.4037 1.69815 35.6052L-0.300646 35.6748C-0.184651 39.0096 1.10844 41.7287 3.58955 43.7372L4.84795 42.1828ZM0.69875 36.64H9.61875V34.64H0.69875V36.64ZM8.62251 35.7266C8.74275 37.1093 9.21535 38.3062 10.2495 39.0222L11.388 37.3778C11.0355 37.1338 10.7081 36.624 10.615 35.5534L8.62251 35.7266ZM10.2495 39.0222C11.1891 39.6726 12.4858 39.92 13.9788 39.92V37.92C12.6451 37.92 11.8351 37.6874 11.388 37.3778L10.2495 39.0222ZM13.9788 39.92C15.274 39.92 16.3994 39.7549 17.2349 39.3147C17.6674 39.0868 18.0451 38.773 18.3113 38.3521C18.58 37.9275 18.6987 37.4513 18.6987 36.96H16.6987C16.6987 37.1221 16.6625 37.2175 16.6212 37.2829C16.5774 37.352 16.4901 37.4465 16.3026 37.5453C15.8981 37.7584 15.1635 37.92 13.9788 37.92V39.92ZM18.6987 36.96C18.6987 35.9393 18.1946 35.1315 17.3275 34.6191L16.31 36.3409C16.6162 36.5219 16.6987 36.7007 16.6987 36.96H18.6987ZM17.3275 34.6191C16.5548 34.1625 15.3252 33.8641 13.7977 33.6497L13.5198 35.6303C15.0323 35.8426 15.9094 36.1042 16.31 36.3409L17.3275 34.6191ZM13.7969 33.6496L10.3569 33.1696L10.0806 35.1504L13.5206 35.6304L13.7969 33.6496ZM10.3602 33.17C7.70314 32.7905 5.74727 31.9078 4.39334 30.6006L3.00416 32.0394C4.74356 33.7188 7.13436 34.7295 10.0773 35.1499L10.3602 33.17ZM4.39968 30.6068C3.07862 29.3085 2.37875 27.544 2.37875 25.2H0.37875C0.37875 27.976 1.22555 30.2915 2.99782 32.0332L4.39968 30.6068ZM2.37875 25.2C2.37875 22.9226 3.08518 21.0643 4.47399 19.5578L3.00351 18.2022C1.24566 20.109 0.37875 22.4641 0.37875 25.2H2.37875ZM4.47468 19.5571C6.02682 17.8699 8.9222 16.88 13.4988 16.88V14.88C8.74197 14.88 5.13068 15.89 3.00282 18.2029L4.47468 19.5571ZM13.4988 16.88C17.3055 16.88 20.0624 17.6438 21.9083 19.0297C23.7195 20.3895 24.7866 22.4489 25.022 25.3606L27.0155 25.1994C26.7442 21.8444 25.4714 19.2039 23.1092 17.4303C20.7817 15.6829 17.532 14.88 13.4988 14.88V16.88ZM26.0188 24.28H17.6588V26.28H26.0188V24.28ZM18.6523 25.1665C18.5237 24.0417 18.0823 23.0679 17.2069 22.4313L16.0306 24.0487C16.3286 24.2654 16.5804 24.6516 16.6652 25.3935L18.6523 25.1665ZM17.2302 22.4487C16.3809 21.7924 15.1755 21.56 13.8188 21.56V23.56C15.022 23.56 15.6833 23.7809 16.0073 24.0313L17.2302 22.4487ZM13.8188 21.56C12.6156 21.56 11.5577 21.7153 10.7671 22.1382C10.3569 22.3576 9.9979 22.6604 9.74506 23.0661C9.49029 23.4749 9.37875 23.9316 9.37875 24.4H11.3787C11.3787 24.2551 11.4105 24.1751 11.4424 24.1239C11.4763 24.0696 11.5473 23.989 11.7104 23.9018C12.0665 23.7113 12.7286 23.56 13.8188 23.56V21.56ZM9.37875 24.4C9.37875 25.2634 9.77505 25.9776 10.4664 26.4729C11.1051 26.9305 11.9623 27.1817 12.9256 27.3111L13.1919 25.3289C12.3686 25.2183 11.8857 25.0295 11.6311 24.8471C11.4291 24.7024 11.3787 24.5766 11.3787 24.4H9.37875ZM12.9206 27.3104L16.3606 27.7904L16.6369 25.8096L13.1969 25.3296L12.9206 27.3104ZM16.3584 27.7901C19.8547 28.2858 22.2467 29.2072 23.689 30.4401L24.9885 28.9199C23.1241 27.3261 20.2895 26.3275 16.6391 25.8099L16.3584 27.7901ZM23.689 30.4401C25.0824 31.6313 25.8188 33.3057 25.8188 35.6H27.8188C27.8188 32.8277 26.9017 30.5553 24.9885 28.9199L23.689 30.4401ZM25.8188 35.6C25.8188 38.4214 24.8259 40.58 22.865 42.1865L24.1325 43.7335C26.5983 41.7134 27.8188 38.9653 27.8188 35.6H25.8188ZM27.1078 16.52V15.52H26.1078V16.52H27.1078ZM51.9078 16.52H52.9078V15.52H51.9078V16.52ZM51.9078 24.28V25.28H52.9078V24.28H51.9078ZM44.0278 24.28V23.28H43.0278V24.28H44.0278ZM44.0278 45V46H45.0278V45H44.0278ZM34.9878 45H33.9878V46H34.9878V45ZM34.9878 24.28H35.9878V23.28H34.9878V24.28ZM27.1078 24.28H26.1078V25.28H27.1078V24.28ZM27.1078 17.52H51.9078V15.52H27.1078V17.52ZM50.9078 16.52V24.28H52.9078V16.52H50.9078ZM51.9078 23.28H44.0278V25.28H51.9078V23.28ZM43.0278 24.28V45H45.0278V24.28H43.0278ZM44.0278 44H34.9878V46H44.0278V44ZM35.9878 45V24.28H33.9878V45H35.9878ZM34.9878 23.28H27.1078V25.28H34.9878V23.28ZM28.1078 24.28V16.52H26.1078V24.28H28.1078ZM56.2325 41.6L56.9362 40.8894L56.9292 40.8826L56.2325 41.6ZM56.2725 19.92L55.5758 19.2026L55.5757 19.2027L56.2725 19.92ZM78.0725 19.92L78.7727 19.2061L78.7676 19.201L78.7623 19.196L78.0725 19.92ZM78.0725 41.6L77.3758 40.8826L77.3757 40.8827L78.0725 41.6ZM62.9925 36.2L63.7565 35.5548L63.7488 35.5457L63.7408 35.5367L62.9925 36.2ZM71.3525 36.2L72.1082 36.8549L72.1093 36.8536L71.3525 36.2ZM71.3525 25.4L70.5733 26.0268L70.5808 26.0361L70.5885 26.0452L71.3525 25.4ZM62.9125 25.4L62.1415 24.7631L62.1401 24.7649L62.9125 25.4ZM67.1525 44.68C62.8337 44.68 59.4634 43.3922 56.9361 40.8895L55.5289 42.3105C58.4949 45.2478 62.4046 46.68 67.1525 46.68V44.68ZM56.9292 40.8826C54.3832 38.4101 53.0725 35.0736 53.0725 30.76H51.0725C51.0725 35.5131 52.5351 39.4032 55.5358 42.3174L56.9292 40.8826ZM53.0725 30.76C53.0725 26.4781 54.3935 23.1395 56.9693 20.6373L55.5757 19.2027C52.5515 22.1405 51.0725 26.0285 51.0725 30.76H53.0725ZM56.9692 20.6374C59.5262 18.1541 62.8881 16.88 67.1525 16.88V14.88C62.4569 14.88 58.5654 16.2992 55.5758 19.2026L56.9692 20.6374ZM67.1525 16.88C71.3879 16.88 74.7684 18.153 77.3827 20.644L78.7623 19.196C75.7233 16.3003 71.8237 14.88 67.1525 14.88V16.88ZM77.3723 20.6339C79.9229 23.1355 81.2325 26.4752 81.2325 30.76H83.2325C83.2325 26.0314 81.7687 22.1445 78.7727 19.2061L77.3723 20.6339ZM81.2325 30.76C81.2325 35.0736 79.9218 38.4101 77.3758 40.8826L78.7692 42.3174C81.7699 39.4032 83.2325 35.5131 83.2325 30.76H81.2325ZM77.3757 40.8827C74.7901 43.3944 71.4138 44.68 67.1525 44.68V46.68C71.8512 46.68 75.7549 45.2456 78.7693 42.3173L77.3757 40.8827ZM62.2285 36.8452C63.4561 38.299 65.1379 39 67.1525 39V37C65.6471 37 64.5555 36.501 63.7565 35.5548L62.2285 36.8452ZM67.1525 39C69.1673 39 70.8563 38.2994 72.1082 36.8549L70.5968 35.5451C69.7687 36.5006 68.6578 37 67.1525 37V39ZM72.1093 36.8536C73.3485 35.4188 73.8725 33.321 73.8725 30.76H71.8725C71.8725 33.1057 71.3831 34.6346 70.5957 35.5464L72.1093 36.8536ZM73.8725 30.76C73.8725 28.2666 73.3433 26.2076 72.1165 24.7548L70.5885 26.0452C71.3883 26.9924 71.8725 28.5067 71.8725 30.76H73.8725ZM72.1317 24.7732C70.925 23.273 69.217 22.56 67.1525 22.56V24.56C68.7147 24.56 69.8066 25.0736 70.5733 26.0268L72.1317 24.7732ZM67.1525 22.56C65.0877 22.56 63.3727 23.2727 62.1415 24.7631L63.6835 26.0369C64.4789 25.074 65.5907 24.56 67.1525 24.56V22.56ZM62.1401 24.7649C60.9462 26.2169 60.4325 28.2717 60.4325 30.76H62.4325C62.4325 28.5017 62.9055 26.9831 63.6849 26.0351L62.1401 24.7649ZM60.4325 30.76C60.4325 33.326 60.9719 35.428 62.2442 36.8633L63.7408 35.5367C62.9331 34.6254 62.4325 33.1007 62.4325 30.76H60.4325ZM109.312 37.92L110.309 37.844L110.309 37.8421L109.312 37.92ZM109.632 42.12L108.635 42.196L108.636 42.205L108.637 42.2139L109.632 42.12ZM110.312 45V46H112.127L111.158 44.466L110.312 45ZM101.072 45L100.186 45.4626L100.466 46H101.072V45ZM100.512 42.12L101.511 42.0792L101.511 42.0778L100.512 42.12ZM100.392 39.28L99.393 39.3192L99.3931 39.3222L100.392 39.28ZM99.5122 36.48L98.8051 37.1871L98.8141 37.1962L98.8234 37.205L99.5122 36.48ZM93.6322 35.72V34.72H92.6322V35.72H93.6322ZM93.6322 45V46H94.6322V45H93.6322ZM84.5922 45H83.5922V46H84.5922V45ZM84.5922 16.52V15.52H83.5922V16.52H84.5922ZM105.312 31.68L104.947 30.7491L102.521 31.7013L104.961 32.6163L105.312 31.68ZM108.152 33.88L107.303 34.4079L107.308 34.4161L107.313 34.4242L108.152 33.88ZM93.6322 29.16H92.6322V30.16H93.6322V29.16ZM93.6322 23.48V22.48H92.6322V23.48H93.6322ZM108.315 37.996L108.635 42.196L110.629 42.044L110.309 37.844L108.315 37.996ZM108.637 42.2139C108.77 43.625 109.006 44.8051 109.467 45.534L111.158 44.466C110.978 44.1815 110.761 43.4417 110.628 42.0261L108.637 42.2139ZM110.312 44H101.072V46H110.312V44ZM101.959 44.5374C101.744 44.1251 101.563 43.347 101.511 42.0792L99.513 42.1608C99.5679 43.5063 99.7607 44.6482 100.186 45.4626L101.959 44.5374ZM101.511 42.0778L101.391 39.2378L99.3931 39.3222L99.5131 42.1622L101.511 42.0778ZM101.391 39.2408C101.336 37.8192 101.03 36.5426 100.201 35.755L98.8234 37.205C99.061 37.4307 99.342 38.0208 99.393 39.3192L101.391 39.2408ZM100.219 35.7729C99.4178 34.9714 98.1455 34.72 96.7522 34.72V36.72C98.0256 36.72 98.5932 36.9753 98.8051 37.1871L100.219 35.7729ZM96.7522 34.72H93.6322V36.72H96.7522V34.72ZM92.6322 35.72V45H94.6322V35.72H92.6322ZM93.6322 44H84.5922V46H93.6322V44ZM85.5922 45V16.52H83.5922V45H85.5922ZM84.5922 17.52H98.6322V15.52H84.5922V17.52ZM98.6322 17.52C102.187 17.52 104.669 18.2027 106.246 19.4051C107.771 20.5684 108.592 22.3311 108.592 24.88H110.592C110.592 21.8556 109.587 19.4383 107.459 17.8149C105.382 16.2306 102.384 15.52 98.6322 15.52V17.52ZM108.592 24.88C108.592 26.4494 108.265 27.6719 107.676 28.6073C107.092 29.5346 106.205 30.2554 104.947 30.7491L105.678 32.6109C107.273 31.9846 108.525 31.0121 109.369 29.6727C110.206 28.3414 110.592 26.724 110.592 24.88H108.592ZM104.961 32.6163C106.072 33.0331 106.826 33.6403 107.303 34.4079L109.001 33.3521C108.252 32.1464 107.112 31.2869 105.663 30.7437L104.961 32.6163ZM107.313 34.4242C107.831 35.2217 108.189 36.3869 108.315 37.9979L110.309 37.8421C110.168 36.0398 109.754 34.5116 108.991 33.3358L107.313 34.4242ZM93.6322 30.16H97.2322V28.16H93.6322V30.16ZM97.2322 30.16C98.4043 30.16 99.47 29.8953 100.245 29.1895C101.039 28.4675 101.352 27.4463 101.352 26.32H99.3522C99.3522 27.087 99.1459 27.4858 98.899 27.7105C98.6344 27.9514 98.1401 28.16 97.2322 28.16V30.16ZM101.352 26.32C101.352 25.1937 101.039 24.1725 100.245 23.4505C99.47 22.7447 98.4043 22.48 97.2322 22.48V24.48C98.1401 24.48 98.6344 24.6886 98.899 24.9295C99.1459 25.1542 99.3522 25.553 99.3522 26.32H101.352ZM97.2322 22.48H93.6322V24.48H97.2322V22.48ZM92.6322 23.48V29.16H94.6322V23.48H92.6322ZM135.765 16.52H136.765V15.52H135.765V16.52ZM135.765 24.28V25.28H136.765V24.28H135.765ZM121.445 24.28V23.28H120.445V24.28H121.445ZM121.445 27.08H120.445V28.08H121.445V27.08ZM134.685 27.08H135.685V26.08H134.685V27.08ZM134.685 34.56V35.56H135.685V34.56H134.685ZM121.445 34.56V33.56H120.445V34.56H121.445ZM121.445 37.24H120.445V38.24H121.445V37.24ZM135.765 37.24H136.765V36.24H135.765V37.24ZM135.765 45V46H136.765V45H135.765ZM112.405 45H111.405V46H112.405V45ZM112.405 16.52V15.52H111.405V16.52H112.405ZM134.765 16.52V24.28H136.765V16.52H134.765ZM135.765 23.28H121.445V25.28H135.765V23.28ZM120.445 24.28V27.08H122.445V24.28H120.445ZM121.445 28.08H134.685V26.08H121.445V28.08ZM133.685 27.08V34.56H135.685V27.08H133.685ZM134.685 33.56H121.445V35.56H134.685V33.56ZM120.445 34.56V37.24H122.445V34.56H120.445ZM121.445 38.24H135.765V36.24H121.445V38.24ZM134.765 37.24V45H136.765V37.24H134.765ZM135.765 44H112.405V46H135.765V44ZM113.405 45V16.52H111.405V45H113.405ZM112.405 17.52H135.765V15.52H112.405V17.52Z" fill="white" mask="url(#path-1-outside-1_164_2)"/>
<mask id="path-3-outside-2_164_2" maskUnits="userSpaceOnUse" x="1" y="59" width="136" height="33" fill="black">
<rect fill="white" x="1" y="59" width="136" height="33"/>
<path d="M11.8002 61.52V82.24H24.0402V90H2.76016V61.52H11.8002ZM45.4611 90.68C40.9278 90.68 37.2878 89.32 34.5411 86.6C31.7678 83.9067 30.3811 80.2933 30.3811 75.76C30.3811 71.2533 31.7811 67.64 34.5811 64.92C37.3544 62.2267 40.9811 60.88 45.4611 60.88C49.9144 60.88 53.5544 62.2267 56.3811 64.92C59.1544 67.64 60.5411 71.2533 60.5411 75.76C60.5411 80.2933 59.1544 83.9067 56.3811 86.6C53.5811 89.32 49.9411 90.68 45.4611 90.68ZM41.3011 81.2C42.3144 82.4 43.7011 83 45.4611 83C47.2211 83 48.6211 82.4 49.6611 81.2C50.6744 80.0267 51.1811 78.2133 51.1811 75.76C51.1811 73.3867 50.6744 71.6 49.6611 70.4C48.6744 69.1733 47.2744 68.56 45.4611 68.56C43.6478 68.56 42.2344 69.1733 41.2211 70.4C40.2344 71.6 39.7411 73.3867 39.7411 75.76C39.7411 78.2133 40.2611 80.0267 41.3011 81.2ZM83.1408 79.68V73.4H96.9408V90H91.1008L90.4608 86.96C88.5674 89.44 85.6608 90.68 81.7408 90.68C77.4741 90.68 74.1274 89.2667 71.7008 86.44C69.2741 83.6667 68.0608 80.08 68.0608 75.68C68.0608 71.28 69.3941 67.7067 72.0608 64.96C74.7008 62.24 78.3141 60.88 82.9008 60.88C86.7408 60.88 89.9274 61.8267 92.4608 63.72C94.9674 65.64 96.4474 68.1867 96.9008 71.36H87.6608C86.9941 69.4933 85.4608 68.56 83.0608 68.56C81.3008 68.56 79.9141 69.16 78.9008 70.36C77.9141 71.5333 77.4208 73.36 77.4208 75.84C77.4208 80.6667 79.3141 83.08 83.1008 83.08C85.7674 83.08 87.4608 81.9467 88.1808 79.68H83.1408ZM120 90.68C115.467 90.68 111.827 89.32 109.08 86.6C106.307 83.9067 104.92 80.2933 104.92 75.76C104.92 71.2533 106.32 67.64 109.12 64.92C111.893 62.2267 115.52 60.88 120 60.88C124.453 60.88 128.093 62.2267 130.92 64.92C133.693 67.64 135.08 71.2533 135.08 75.76C135.08 80.2933 133.693 83.9067 130.92 86.6C128.12 89.32 124.48 90.68 120 90.68ZM115.84 81.2C116.853 82.4 118.24 83 120 83C121.76 83 123.16 82.4 124.2 81.2C125.213 80.0267 125.72 78.2133 125.72 75.76C125.72 73.3867 125.213 71.6 124.2 70.4C123.213 69.1733 121.813 68.56 120 68.56C118.187 68.56 116.773 69.1733 115.76 70.4C114.773 71.6 114.28 73.3867 114.28 75.76C114.28 78.2133 114.8 80.0267 115.84 81.2Z"/>
</mask>
<path d="M11.8002 61.52H12.8002V60.52H11.8002V61.52ZM11.8002 82.24H10.8002V83.24H11.8002V82.24ZM24.0402 82.24H25.0402V81.24H24.0402V82.24ZM24.0402 90V91H25.0402V90H24.0402ZM2.76016 90H1.76016V91H2.76016V90ZM2.76016 61.52V60.52H1.76016V61.52H2.76016ZM10.8002 61.52V82.24H12.8002V61.52H10.8002ZM11.8002 83.24H24.0402V81.24H11.8002V83.24ZM23.0402 82.24V90H25.0402V82.24H23.0402ZM24.0402 89H2.76016V91H24.0402V89ZM3.76016 90V61.52H1.76016V90H3.76016ZM2.76016 62.52H11.8002V60.52H2.76016V62.52ZM34.5411 86.6L35.2448 85.8894L35.2378 85.8826L34.5411 86.6ZM34.5811 64.92L33.8844 64.2026L33.8843 64.2027L34.5811 64.92ZM56.3811 64.92L57.0813 64.2061L57.0761 64.201L57.0709 64.196L56.3811 64.92ZM56.3811 86.6L55.6844 85.8826L55.6843 85.8827L56.3811 86.6ZM41.3011 81.2L42.0651 80.5548L42.0574 80.5457L42.0494 80.5367L41.3011 81.2ZM49.6611 81.2L50.4168 81.8549L50.4179 81.8536L49.6611 81.2ZM49.6611 70.4L48.8819 71.0268L48.8894 71.0361L48.8971 71.0452L49.6611 70.4ZM41.2211 70.4L40.4501 69.7631L40.4487 69.7649L41.2211 70.4ZM45.4611 89.68C41.1423 89.68 37.772 88.3922 35.2447 85.8895L33.8374 87.3105C36.8035 90.2478 40.7132 91.68 45.4611 91.68V89.68ZM35.2378 85.8826C32.6918 83.4101 31.3811 80.0736 31.3811 75.76H29.3811C29.3811 80.5131 30.8437 84.4032 33.8444 87.3174L35.2378 85.8826ZM31.3811 75.76C31.3811 71.4781 32.702 68.1395 35.2779 65.6373L33.8843 64.2027C30.8601 67.1405 29.3811 71.0285 29.3811 75.76H31.3811ZM35.2778 65.6374C37.8348 63.1541 41.1967 61.88 45.4611 61.88V59.88C40.7655 59.88 36.874 61.2992 33.8844 64.2026L35.2778 65.6374ZM45.4611 61.88C49.6965 61.88 53.077 63.153 55.6913 65.644L57.0709 64.196C54.0319 61.3003 50.1323 59.88 45.4611 59.88V61.88ZM55.6809 65.6339C58.2315 68.1355 59.5411 71.4752 59.5411 75.76H61.5411C61.5411 71.0314 60.0773 67.1445 57.0813 64.2061L55.6809 65.6339ZM59.5411 75.76C59.5411 80.0736 58.2304 83.4101 55.6844 85.8826L57.0778 87.3174C60.0785 84.4032 61.5411 80.5131 61.5411 75.76H59.5411ZM55.6843 85.8827C53.0987 88.3944 49.7224 89.68 45.4611 89.68V91.68C50.1598 91.68 54.0635 90.2456 57.0779 87.3173L55.6843 85.8827ZM40.5371 81.8452C41.7647 83.299 43.4465 84 45.4611 84V82C43.9557 82 42.8641 81.501 42.0651 80.5548L40.5371 81.8452ZM45.4611 84C47.4758 84 49.1649 83.2994 50.4168 81.8549L48.9054 80.5451C48.0773 81.5006 46.9663 82 45.4611 82V84ZM50.4179 81.8536C51.6571 80.4188 52.1811 78.321 52.1811 75.76H50.1811C50.1811 78.1057 49.6917 79.6346 48.9043 80.5464L50.4179 81.8536ZM52.1811 75.76C52.1811 73.2666 51.6519 71.2076 50.4251 69.7548L48.8971 71.0452C49.6969 71.9924 50.1811 73.5067 50.1811 75.76H52.1811ZM50.4403 69.7732C49.2336 68.273 47.5256 67.56 45.4611 67.56V69.56C47.0233 69.56 48.1152 70.0736 48.8819 71.0268L50.4403 69.7732ZM45.4611 67.56C43.3963 67.56 41.6813 68.2727 40.4501 69.7631L41.9921 71.0369C42.7875 70.074 43.8993 69.56 45.4611 69.56V67.56ZM40.4487 69.7649C39.2548 71.2169 38.7411 73.2717 38.7411 75.76H40.7411C40.7411 73.5017 41.2141 71.9831 41.9935 71.0351L40.4487 69.7649ZM38.7411 75.76C38.7411 78.326 39.2805 80.428 40.5527 81.8633L42.0494 80.5367C41.2417 79.6254 40.7411 78.1007 40.7411 75.76H38.7411ZM83.1408 79.68H82.1408V80.68H83.1408V79.68ZM83.1408 73.4V72.4H82.1408V73.4H83.1408ZM96.9408 73.4H97.9408V72.4H96.9408V73.4ZM96.9408 90V91H97.9408V90H96.9408ZM91.1008 90L90.1222 90.206L90.2894 91H91.1008V90ZM90.4608 86.96L91.4393 86.754L90.9899 84.619L89.6659 86.3532L90.4608 86.96ZM71.7008 86.44L72.4596 85.7886L72.4534 85.7815L71.7008 86.44ZM72.0608 64.96L72.7783 65.6566L72.7784 65.6565L72.0608 64.96ZM92.4608 63.72L93.0689 62.9261L93.0594 62.919L92.4608 63.72ZM96.9008 71.36V72.36H98.0538L97.8907 71.2186L96.9008 71.36ZM87.6608 71.36L86.719 71.6963L86.9561 72.36H87.6608V71.36ZM78.9008 70.36L78.1367 69.7148L78.1354 69.7164L78.9008 70.36ZM88.1808 79.68L89.1339 79.9827L89.5477 78.68H88.1808V79.68ZM84.1408 79.68V73.4H82.1408V79.68H84.1408ZM83.1408 74.4H96.9408V72.4H83.1408V74.4ZM95.9408 73.4V90H97.9408V73.4H95.9408ZM96.9408 89H91.1008V91H96.9408V89ZM92.0793 89.794L91.4393 86.754L89.4822 87.166L90.1222 90.206L92.0793 89.794ZM89.6659 86.3532C88.0096 88.5228 85.4372 89.68 81.7408 89.68V91.68C85.8843 91.68 89.1253 90.3572 91.2556 87.5668L89.6659 86.3532ZM81.7408 89.68C77.7186 89.68 74.6675 88.3605 72.4595 85.7886L70.942 87.0914C73.5874 90.1728 77.2296 91.68 81.7408 91.68V89.68ZM72.4534 85.7815C70.216 83.2245 69.0608 79.8872 69.0608 75.68H67.0608C67.0608 80.2728 68.3323 84.1089 70.9482 87.0985L72.4534 85.7815ZM69.0608 75.68C69.0608 71.4982 70.32 68.1886 72.7783 65.6566L71.3433 64.2634C68.4682 67.2248 67.0608 71.0618 67.0608 75.68H69.0608ZM72.7784 65.6565C75.1915 63.1702 78.5236 61.88 82.9008 61.88V59.88C78.1046 59.88 74.2101 61.3097 71.3432 64.2635L72.7784 65.6565ZM82.9008 61.88C86.5723 61.88 89.5361 62.7826 91.8621 64.521L93.0594 62.919C90.3188 60.8707 86.9092 59.88 82.9008 59.88V61.88ZM91.8527 64.5139C94.1481 66.272 95.4939 68.5828 95.9108 71.5014L97.8907 71.2186C97.401 67.7906 95.7868 65.0079 93.0689 62.9261L91.8527 64.5139ZM96.9008 70.36H87.6608V72.36H96.9008V70.36ZM88.6025 71.0237C88.2007 69.8984 87.5139 69.0042 86.5307 68.4058C85.563 67.8168 84.3842 67.56 83.0608 67.56V69.56C84.1374 69.56 84.9252 69.7699 85.4908 70.1142C86.041 70.4491 86.4542 70.9549 86.719 71.6963L88.6025 71.0237ZM83.0608 67.56C81.0462 67.56 79.3644 68.261 78.1367 69.7148L79.6648 71.0052C80.4638 70.059 81.5554 69.56 83.0608 69.56V67.56ZM78.1354 69.7164C76.9281 71.1521 76.4208 73.2605 76.4208 75.84H78.4208C78.4208 73.4595 78.9001 71.9146 79.6661 71.0036L78.1354 69.7164ZM76.4208 75.84C76.4208 78.3568 76.9098 80.4288 78.054 81.8872C79.2345 83.3919 80.9799 84.08 83.1008 84.08V82.08C81.435 82.08 80.3404 81.5614 79.6276 80.6528C78.8784 79.6979 78.4208 78.1499 78.4208 75.84H76.4208ZM83.1008 84.08C84.5718 84.08 85.8719 83.7672 86.927 83.061C87.9925 82.3479 88.7172 81.2943 89.1339 79.9827L87.2277 79.3773C86.9243 80.3324 86.4424 80.9787 85.8146 81.399C85.1763 81.8261 84.2964 82.08 83.1008 82.08V84.08ZM88.1808 78.68H83.1408V80.68H88.1808V78.68ZM109.08 86.6L109.784 85.8894L109.777 85.8826L109.08 86.6ZM109.12 64.92L108.423 64.2026L108.423 64.2027L109.12 64.92ZM130.92 64.92L131.62 64.2061L131.615 64.201L131.61 64.196L130.92 64.92ZM130.92 86.6L130.223 85.8826L130.223 85.8827L130.92 86.6ZM115.84 81.2L116.604 80.5548L116.596 80.5457L116.589 80.5367L115.84 81.2ZM124.2 81.2L124.956 81.8549L124.957 81.8536L124.2 81.2ZM124.2 70.4L123.421 71.0268L123.428 71.0361L123.436 71.0452L124.2 70.4ZM115.76 70.4L114.989 69.7631L114.988 69.7649L115.76 70.4ZM120 89.68C115.681 89.68 112.311 88.3922 109.784 85.8895L108.377 87.3105C111.343 90.2478 115.252 91.68 120 91.68V89.68ZM109.777 85.8826C107.231 83.4101 105.92 80.0736 105.92 75.76H103.92C103.92 80.5131 105.383 84.4032 108.383 87.3174L109.777 85.8826ZM105.92 75.76C105.92 71.4781 107.241 68.1395 109.817 65.6373L108.423 64.2027C105.399 67.1405 103.92 71.0285 103.92 75.76H105.92ZM109.817 65.6374C112.374 63.1541 115.736 61.88 120 61.88V59.88C115.305 59.88 111.413 61.2992 108.423 64.2026L109.817 65.6374ZM120 61.88C124.236 61.88 127.616 63.153 130.23 65.644L131.61 64.196C128.571 61.3003 124.671 59.88 120 59.88V61.88ZM130.22 65.6339C132.771 68.1355 134.08 71.4752 134.08 75.76H136.08C136.08 71.0314 134.616 67.1445 131.62 64.2061L130.22 65.6339ZM134.08 75.76C134.08 80.0736 132.769 83.4101 130.223 85.8826L131.617 87.3174C134.618 84.4032 136.08 80.5131 136.08 75.76H134.08ZM130.223 85.8827C127.638 88.3944 124.261 89.68 120 89.68V91.68C124.699 91.68 128.603 90.2456 131.617 87.3173L130.223 85.8827ZM115.076 81.8452C116.304 83.299 117.986 84 120 84V82C118.495 82 117.403 81.501 116.604 80.5548L115.076 81.8452ZM120 84C122.015 84 123.704 83.2994 124.956 81.8549L123.444 80.5451C122.616 81.5006 121.505 82 120 82V84ZM124.957 81.8536C126.196 80.4188 126.72 78.321 126.72 75.76H124.72C124.72 78.1057 124.231 79.6346 123.443 80.5464L124.957 81.8536ZM126.72 75.76C126.72 73.2666 126.191 71.2076 124.964 69.7548L123.436 71.0452C124.236 71.9924 124.72 73.5067 124.72 75.76H126.72ZM124.979 69.7732C123.773 68.273 122.065 67.56 120 67.56V69.56C121.562 69.56 122.654 70.0736 123.421 71.0268L124.979 69.7732ZM120 67.56C117.935 67.56 116.22 68.2727 114.989 69.7631L116.531 71.0369C117.327 70.074 118.438 69.56 120 69.56V67.56ZM114.988 69.7649C113.794 71.2169 113.28 73.2717 113.28 75.76H115.28C115.28 73.5017 115.753 71.9831 116.533 71.0351L114.988 69.7649ZM113.28 75.76C113.28 78.326 113.82 80.428 115.092 81.8633L116.589 80.5367C115.781 79.6254 115.28 78.1007 115.28 75.76H113.28Z" fill="white" mask="url(#path-3-outside-2_164_2)"/>
</svg>
