<svg width="16" height="16" viewBox="0 0 16 16" fill="none" xmlns="http://www.w3.org/2000/svg">
<path fill-rule="evenodd" clip-rule="evenodd" d="M7.84641 12.1267C10.2102 12.1267 12.1264 10.2104 12.1264 7.84665C12.1264 5.48287 10.2102 3.56665 7.84641 3.56665C5.48263 3.56665 3.56641 5.48287 3.56641 7.84665C3.56641 10.2104 5.48263 12.1267 7.84641 12.1267ZM7.84641 10.7C9.42223 10.7 10.6997 9.42248 10.6997 7.84665C10.6997 6.2708 9.42223 4.99332 7.84641 4.99332C6.27055 4.99332 4.99307 6.2708 4.99307 7.84665C4.99307 9.42248 6.27055 10.7 7.84641 10.7Z" fill="white"/>
<path d="M12.1274 2.85333C11.7334 2.85333 11.4141 3.17271 11.4141 3.56667C11.4141 3.96063 11.7334 4.28 12.1274 4.28C12.5214 4.28 12.8407 3.96063 12.8407 3.56667C12.8407 3.17271 12.5214 2.85333 12.1274 2.85333Z" fill="white"/>
<path fill-rule="evenodd" clip-rule="evenodd" d="M0.466491 2.33692C0 3.25247 0 4.45098 0 6.848V8.84533C0 11.2423 0 12.4409 0.466491 13.3564C0.876829 14.1617 1.53158 14.8165 2.33692 15.2268C3.25247 15.6933 4.45098 15.6933 6.848 15.6933H8.84533C11.2423 15.6933 12.4409 15.6933 13.3564 15.2268C14.1617 14.8165 14.8165 14.1617 15.2268 13.3564C15.6933 12.4409 15.6933 11.2423 15.6933 8.84533V6.848C15.6933 4.45098 15.6933 3.25247 15.2268 2.33692C14.8165 1.53158 14.1617 0.876829 13.3564 0.466491C12.4409 0 11.2423 0 8.84533 0H6.848C4.45098 0 3.25247 0 2.33692 0.466491C1.53158 0.876829 0.876829 1.53158 0.466491 2.33692ZM8.84533 1.42667H6.848C5.62595 1.42667 4.79521 1.42778 4.15308 1.48024C3.5276 1.53134 3.20775 1.62397 2.98462 1.73766C2.44773 2.01122 2.01122 2.44773 1.73766 2.98462C1.62397 3.20775 1.53134 3.5276 1.48024 4.15308C1.42778 4.79521 1.42667 5.62595 1.42667 6.848V8.84533C1.42667 10.0674 1.42778 10.8981 1.48024 11.5402C1.53134 12.1658 1.62397 12.4856 1.73766 12.7087C2.01122 13.2456 2.44773 13.6821 2.98462 13.9557C3.20775 14.0694 3.5276 14.162 4.15308 14.2131C4.79521 14.2655 5.62595 14.2667 6.848 14.2667H8.84533C10.0674 14.2667 10.8981 14.2655 11.5402 14.2131C12.1658 14.162 12.4856 14.0694 12.7087 13.9557C13.2456 13.6821 13.6821 13.2456 13.9557 12.7087C14.0694 12.4856 14.162 12.1658 14.2131 11.5402C14.2655 10.8981 14.2667 10.0674 14.2667 8.84533V6.848C14.2667 5.62595 14.2655 4.79521 14.2131 4.15308C14.162 3.5276 14.0694 3.20775 13.9557 2.98462C13.6821 2.44773 13.2456 2.01122 12.7087 1.73766C12.4856 1.62397 12.1658 1.53134 11.5402 1.48024C10.8981 1.42778 10.0674 1.42667 8.84533 1.42667Z" fill="white"/>
</svg>
