<svg width="138" height="79" viewBox="0 0 138 79" fill="none" xmlns="http://www.w3.org/2000/svg">
<mask id="path-1-outside-1_88_4" maskUnits="userSpaceOnUse" x="-1" y="2" width="138" height="31" fill="black">
<rect fill="white" x="-1" y="2" width="138" height="31"/>
<path d="M14.4388 31.48C9.47875 31.48 4.79875 29.92 1.31875 26.84L5.63875 21.68C8.43875 23.88 11.4788 25.04 14.7188 25.04C16.8388 25.04 17.9588 24.32 17.9588 23.12C17.9588 21.8 16.9988 21.6 13.1988 20.72C7.23875 19.36 2.63875 17.8 2.63875 12.08C2.63875 6.6 6.95875 3.04 13.4788 3.04C18.2388 3.04 21.9588 4.32 24.9988 6.76L21.1188 12.24C18.5588 10.4 15.7588 9.48 13.2788 9.48C11.3988 9.48 10.4788 10.24 10.4788 11.28C10.4788 12.68 11.4388 13.12 15.3588 13.96C21.7588 15.32 25.7588 17.04 25.7588 22.28C25.7588 28.08 21.3188 31.48 14.4388 31.48ZM34.5997 31V10.44H26.4797V3.52H50.4797V10.44H42.3597V31H34.5997ZM66.5997 31.48C58.4797 31.48 51.6397 24.96 51.6397 17.24C51.6397 9.52 58.4797 3.04 66.5997 3.04C74.7197 3.04 81.5597 9.52 81.5597 17.24C81.5597 24.96 74.7197 31.48 66.5997 31.48ZM66.5997 24.44C70.3597 24.44 73.5597 21.16 73.5597 17.24C73.5597 13.36 70.3597 10.08 66.5997 10.08C62.8397 10.08 59.6397 13.36 59.6397 17.24C59.6397 21.16 62.8397 24.44 66.5997 24.44ZM109.436 31H100.596L94.7956 22.72H92.9156V31H85.1556V3.52H98.3156C104.476 3.52 108.836 7.48 108.836 13.12C108.836 17.2 106.556 20.36 102.996 21.84L109.436 31ZM92.9156 10.56V15.68H97.6756C99.5156 15.68 100.836 14.6 100.836 13.12C100.836 11.64 99.5156 10.56 97.6756 10.56H92.9156ZM135.127 10.44H120.767V13.52H133.847V20.44H120.767V24.08H135.127V31H113.007V3.52H135.127V10.44Z"/>
</mask>
<path d="M1.31875 26.84L0.551992 26.1981L-0.072544 26.944L0.65599 27.5888L1.31875 26.84ZM5.63875 21.68L6.25657 20.8937L5.4943 20.2948L4.87199 21.0381L5.63875 21.68ZM13.1988 20.72L13.4244 19.7458L13.4212 19.7451L13.1988 20.72ZM24.9988 6.76L25.8149 7.33785L26.3589 6.56946L25.6247 5.98013L24.9988 6.76ZM21.1188 12.24L20.5351 13.052L21.3529 13.6398L21.9349 12.8179L21.1188 12.24ZM15.3588 13.96L15.1492 14.9378L15.1509 14.9382L15.3588 13.96ZM14.4388 30.48C9.68294 30.48 5.25079 28.9847 1.98151 26.0912L0.65599 27.5888C4.34671 30.8553 9.27456 32.48 14.4388 32.48V30.48ZM2.08551 27.4819L6.40551 22.3219L4.87199 21.0381L0.551992 26.1981L2.08551 27.4819ZM5.02093 22.4663C7.9696 24.7831 11.222 26.04 14.7188 26.04V24.04C11.7355 24.04 8.9079 22.9769 6.25657 20.8937L5.02093 22.4663ZM14.7188 26.04C15.867 26.04 16.8858 25.8492 17.6517 25.3854C18.4749 24.887 18.9588 24.0938 18.9588 23.12H16.9588C16.9588 23.3462 16.8827 23.513 16.6158 23.6746C16.2917 23.8708 15.6905 24.04 14.7188 24.04V26.04ZM18.9588 23.12C18.9588 22.6689 18.8761 22.1873 18.5745 21.7469C18.2812 21.3186 17.8599 21.0457 17.4176 20.8446C16.5861 20.4667 15.2623 20.1714 13.4244 19.7458L12.9731 21.6942C14.9352 22.1486 15.9914 22.3933 16.5899 22.6654C16.8626 22.7893 16.9188 22.8689 16.9243 22.8769C16.9268 22.8805 16.9332 22.8898 16.9404 22.9185C16.9488 22.9519 16.9588 23.0136 16.9588 23.12H18.9588ZM13.4212 19.7451C10.4253 19.0614 7.96193 18.3625 6.24198 17.2053C5.40234 16.6404 4.76423 15.9805 4.3307 15.177C3.89732 14.3738 3.63875 13.3722 3.63875 12.08H1.63875C1.63875 13.6478 1.95518 14.9862 2.57055 16.1267C3.18577 17.267 4.07016 18.1546 5.12552 18.8647C7.19557 20.2575 10.0122 21.0186 12.9763 21.6949L13.4212 19.7451ZM3.63875 12.08C3.63875 9.62477 4.59594 7.65124 6.25294 6.27405C7.92766 4.88213 10.3932 4.04 13.4788 4.04V2.04C10.0443 2.04 7.08984 2.97787 4.97456 4.73595C2.84156 6.50876 1.63875 9.05523 1.63875 12.08H3.63875ZM13.4788 4.04C18.0419 4.04 21.5329 5.26049 24.3728 7.53987L25.6247 5.98013C22.3846 3.3795 18.4356 2.04 13.4788 2.04V4.04ZM24.1826 6.18215L20.3026 11.6621L21.9349 12.8179L25.8149 7.33785L24.1826 6.18215ZM21.7024 11.428C18.9975 9.48382 15.9971 8.48 13.2788 8.48V10.48C15.5204 10.48 18.12 11.3162 20.5351 13.052L21.7024 11.428ZM13.2788 8.48C12.2228 8.48 11.298 8.69061 10.6068 9.16621C9.87643 9.66887 9.47875 10.424 9.47875 11.28H11.4788C11.4788 11.096 11.5411 10.9511 11.7407 10.8138C11.9795 10.6494 12.4547 10.48 13.2788 10.48V8.48ZM9.47875 11.28C9.47875 11.7441 9.55864 12.2308 9.83326 12.687C10.1063 13.1406 10.5109 13.4627 10.9775 13.712C11.8554 14.181 13.2237 14.5252 15.1492 14.9378L15.5683 12.9822C13.5738 12.5548 12.5021 12.259 11.92 11.948C11.6566 11.8073 11.5762 11.7044 11.5467 11.6555C11.5189 11.6092 11.4788 11.5159 11.4788 11.28H9.47875ZM15.1509 14.9382C18.349 15.6178 20.7685 16.357 22.3868 17.4853C23.9136 18.5498 24.7588 19.9808 24.7588 22.28H26.7588C26.7588 19.3392 25.6039 17.2902 23.5307 15.8447C21.549 14.463 18.7685 13.6622 15.5666 12.9818L15.1509 14.9382ZM24.7588 22.28C24.7588 24.8996 23.7692 26.9029 22.0543 28.2739C20.3124 29.6666 17.7268 30.48 14.4388 30.48V32.48C18.0307 32.48 21.1051 31.5934 23.3032 29.8361C25.5283 28.0571 26.7588 25.4604 26.7588 22.28H24.7588ZM34.5997 31H33.5997V32H34.5997V31ZM34.5997 10.44H35.5997V9.44H34.5997V10.44ZM26.4797 10.44H25.4797V11.44H26.4797V10.44ZM26.4797 3.52V2.52H25.4797V3.52H26.4797ZM50.4797 3.52H51.4797V2.52H50.4797V3.52ZM50.4797 10.44V11.44H51.4797V10.44H50.4797ZM42.3597 10.44V9.44H41.3597V10.44H42.3597ZM42.3597 31V32H43.3597V31H42.3597ZM35.5997 31V10.44H33.5997V31H35.5997ZM34.5997 9.44H26.4797V11.44H34.5997V9.44ZM27.4797 10.44V3.52H25.4797V10.44H27.4797ZM26.4797 4.52H50.4797V2.52H26.4797V4.52ZM49.4797 3.52V10.44H51.4797V3.52H49.4797ZM50.4797 9.44H42.3597V11.44H50.4797V9.44ZM41.3597 10.44V31H43.3597V10.44H41.3597ZM42.3597 30H34.5997V32H42.3597V30ZM66.5997 30.48C58.9853 30.48 52.6397 24.3622 52.6397 17.24H50.6397C50.6397 25.5578 57.974 32.48 66.5997 32.48V30.48ZM52.6397 17.24C52.6397 10.1213 58.9816 4.04 66.5997 4.04V2.04C57.9778 2.04 50.6397 8.91867 50.6397 17.24H52.6397ZM66.5997 4.04C74.2178 4.04 80.5597 10.1213 80.5597 17.24H82.5597C82.5597 8.91867 75.2216 2.04 66.5997 2.04V4.04ZM80.5597 17.24C80.5597 24.3622 74.214 30.48 66.5997 30.48V32.48C75.2253 32.48 82.5597 25.5578 82.5597 17.24H80.5597ZM66.5997 25.44C70.941 25.44 74.5597 21.6828 74.5597 17.24H72.5597C72.5597 20.6372 69.7784 23.44 66.5997 23.44V25.44ZM74.5597 17.24C74.5597 12.8335 70.9374 9.08 66.5997 9.08V11.08C69.782 11.08 72.5597 13.8865 72.5597 17.24H74.5597ZM66.5997 9.08C62.262 9.08 58.6397 12.8335 58.6397 17.24H60.6397C60.6397 13.8865 63.4174 11.08 66.5997 11.08V9.08ZM58.6397 17.24C58.6397 21.6828 62.2584 25.44 66.5997 25.44V23.44C63.421 23.44 60.6397 20.6372 60.6397 17.24H58.6397ZM109.436 31V32H111.361L110.254 30.4249L109.436 31ZM100.596 31L99.7766 31.5737L100.075 32H100.596V31ZM94.7956 22.72L95.6147 22.1463L95.3161 21.72H94.7956V22.72ZM92.9156 22.72V21.72H91.9156V22.72H92.9156ZM92.9156 31V32H93.9156V31H92.9156ZM85.1556 31H84.1556V32H85.1556V31ZM85.1556 3.52V2.52H84.1556V3.52H85.1556ZM102.996 21.84L102.612 20.9166L101.461 21.3952L102.178 22.4151L102.996 21.84ZM92.9156 10.56V9.56H91.9156V10.56H92.9156ZM92.9156 15.68H91.9156V16.68H92.9156V15.68ZM109.436 30H100.596V32H109.436V30ZM101.415 30.4263L95.6147 22.1463L93.9766 23.2937L99.7766 31.5737L101.415 30.4263ZM94.7956 21.72H92.9156V23.72H94.7956V21.72ZM91.9156 22.72V31H93.9156V22.72H91.9156ZM92.9156 30H85.1556V32H92.9156V30ZM86.1556 31V3.52H84.1556V31H86.1556ZM85.1556 4.52H98.3156V2.52H85.1556V4.52ZM98.3156 4.52C101.181 4.52 103.561 5.43909 105.212 6.94413C106.857 8.44315 107.836 10.5715 107.836 13.12H109.836C109.836 10.0285 108.634 7.35685 106.559 5.46587C104.491 3.58091 101.61 2.52 98.3156 2.52V4.52ZM107.836 13.12C107.836 16.7783 105.815 19.5848 102.612 20.9166L103.38 22.7634C107.296 21.1352 109.836 17.6217 109.836 13.12H107.836ZM102.178 22.4151L108.618 31.5751L110.254 30.4249L103.814 21.2649L102.178 22.4151ZM91.9156 10.56V15.68H93.9156V10.56H91.9156ZM92.9156 16.68H97.6756V14.68H92.9156V16.68ZM97.6756 16.68C99.8639 16.68 101.836 15.3363 101.836 13.12H99.8356C99.8356 13.8637 99.1674 14.68 97.6756 14.68V16.68ZM101.836 13.12C101.836 10.9037 99.8639 9.56 97.6756 9.56V11.56C99.1674 11.56 99.8356 12.3763 99.8356 13.12H101.836ZM97.6756 9.56H92.9156V11.56H97.6756V9.56ZM135.127 10.44V11.44H136.127V10.44H135.127ZM120.767 10.44V9.44H119.767V10.44H120.767ZM120.767 13.52H119.767V14.52H120.767V13.52ZM133.847 13.52H134.847V12.52H133.847V13.52ZM133.847 20.44V21.44H134.847V20.44H133.847ZM120.767 20.44V19.44H119.767V20.44H120.767ZM120.767 24.08H119.767V25.08H120.767V24.08ZM135.127 24.08H136.127V23.08H135.127V24.08ZM135.127 31V32H136.127V31H135.127ZM113.007 31H112.007V32H113.007V31ZM113.007 3.52V2.52H112.007V3.52H113.007ZM135.127 3.52H136.127V2.52H135.127V3.52ZM135.127 9.44H120.767V11.44H135.127V9.44ZM119.767 10.44V13.52H121.767V10.44H119.767ZM120.767 14.52H133.847V12.52H120.767V14.52ZM132.847 13.52V20.44H134.847V13.52H132.847ZM133.847 19.44H120.767V21.44H133.847V19.44ZM119.767 20.44V24.08H121.767V20.44H119.767ZM120.767 25.08H135.127V23.08H120.767V25.08ZM134.127 24.08V31H136.127V24.08H134.127ZM135.127 30H113.007V32H135.127V30ZM114.007 31V3.52H112.007V31H114.007ZM113.007 4.52H135.127V2.52H113.007V4.52ZM134.127 3.52V10.44H136.127V3.52H134.127Z" fill="white" mask="url(#path-1-outside-1_88_4)"/>
<path d="M21.4703 66.08H34.2703V73H13.7103V45.52H21.4703V66.08ZM50.1934 73.48C42.0734 73.48 35.2334 66.96 35.2334 59.24C35.2334 51.52 42.0734 45.04 50.1934 45.04C58.3134 45.04 65.1534 51.52 65.1534 59.24C65.1534 66.96 58.3134 73.48 50.1934 73.48ZM50.1934 66.44C53.9534 66.44 57.1534 63.16 57.1534 59.24C57.1534 55.36 53.9534 52.08 50.1934 52.08C46.4334 52.08 43.2334 55.36 43.2334 59.24C43.2334 63.16 46.4334 66.44 50.1934 66.44ZM80.7094 62.64V56.92H93.5894V68.6C90.7494 71.68 86.5494 73.48 82.2294 73.48C73.9094 73.48 67.0694 67.08 67.0694 59.24C67.0694 51.44 73.9094 45.04 82.2294 45.04C86.5494 45.04 90.7494 46.84 93.5894 49.88L87.8694 54.88C86.5094 53.12 84.4294 52.08 82.2294 52.08C78.3094 52.08 75.0694 55.32 75.0694 59.24C75.0694 63.2 78.3094 66.44 82.2294 66.44C83.5894 66.44 84.9094 66.04 86.0694 65.32V62.64H80.7094ZM111.014 73.48C102.894 73.48 96.0538 66.96 96.0538 59.24C96.0538 51.52 102.894 45.04 111.014 45.04C119.134 45.04 125.974 51.52 125.974 59.24C125.974 66.96 119.134 73.48 111.014 73.48ZM111.014 66.44C114.774 66.44 117.974 63.16 117.974 59.24C117.974 55.36 114.774 52.08 111.014 52.08C107.254 52.08 104.054 55.36 104.054 59.24C104.054 63.16 107.254 66.44 111.014 66.44Z" fill="white"/>
</svg>
