<svg width="22" height="18" viewBox="0 0 22 18" fill="none" xmlns="http://www.w3.org/2000/svg">
<path d="M14.0412 1.31381C15.1253 1.31381 16.1044 1.75744 16.7941 2.47013C17.6525 2.30409 18.461 2.00156 19.1881 1.58288C18.9073 2.43666 18.3088 3.15328 17.5311 3.60609C18.2923 3.51684 19.0208 3.32128 19.6974 3.02859C19.1901 3.76162 18.5522 4.40672 17.8153 4.92253C17.8225 5.07938 17.8264 5.23688 17.8264 5.39438C17.8264 10.2283 14.032 15.8045 7.0941 15.8045C4.96457 15.8045 2.98072 15.1968 1.31319 14.1593C1.60785 14.1934 1.90775 14.2111 2.21226 14.2111C3.97888 14.2111 5.60638 13.627 6.89722 12.6446C5.24544 12.6164 3.85157 11.5572 3.37382 10.1049C3.60416 10.1482 3.84041 10.1712 4.08388 10.1712C4.42644 10.1712 4.76113 10.1272 5.07613 10.0433C3.35085 9.70791 2.05016 8.22937 2.05016 6.45553V6.40828C2.55941 6.68259 3.14019 6.84731 3.75969 6.86634C2.7471 6.20944 2.081 5.09119 2.081 3.82134C2.081 3.15066 2.26738 2.52131 2.59222 1.98319C4.45204 4.19541 7.23126 5.65228 10.3668 5.80519C10.3025 5.53809 10.269 5.25591 10.269 4.97175C10.269 2.95116 11.9582 1.31316 14.0418 1.31316L14.0412 1.31381ZM14.0412 0.00131256C11.4641 0.00131256 9.32929 1.88409 9.00051 4.31681C6.89197 3.89287 4.97441 2.77725 3.59629 1.13925C3.34626 0.841312 2.9781 0.671344 2.59157 0.671344C2.55744 0.671344 2.52332 0.672656 2.48854 0.675281C2.06657 0.709406 1.68594 0.944344 1.46741 1.30659C1.00935 2.06587 0.767849 2.93541 0.767849 3.822C0.767849 4.41394 0.874161 4.98947 1.07563 5.52891C0.861036 5.76778 0.737661 6.0795 0.737661 6.40894V6.45619C0.737661 7.74178 1.2456 8.93484 2.09019 9.82866C2.04163 10.0538 2.05213 10.2893 2.12629 10.5151C2.41766 11.4004 2.94725 12.1636 3.63435 12.745C3.173 12.8481 2.69722 12.8993 2.21094 12.8993C1.95369 12.8993 1.70366 12.8855 1.46741 12.8559C1.41491 12.8494 1.36307 12.8468 1.31122 12.8468C0.759974 12.8468 0.259255 13.1939 0.0741924 13.7242C-0.129245 14.3049 0.0965049 14.9487 0.61888 15.2736C2.55744 16.4797 4.79657 17.1163 7.09344 17.1163C14.5589 17.1163 19.0497 11.2724 19.1369 5.56303C19.7479 5.05706 20.288 4.47234 20.7454 3.81675C20.9121 3.59756 21.0112 3.32391 21.0112 3.02728C21.0112 2.58037 20.7881 2.18597 20.4475 1.94841C20.5945 1.44375 20.4265 0.896438 20.0163 0.563063C19.7768 0.368156 19.4828 0.269063 19.1881 0.269063C18.9624 0.269063 18.736 0.326812 18.5325 0.444937C18.0988 0.694969 17.6348 0.893156 17.1459 1.03556C16.2619 0.370125 15.166 0 14.0405 0L14.0412 0.00131256Z" fill="white"/>
</svg>
